<svg xmlns="http://www.w3.org/2000/svg" width="14" height="14" fill="none" xmlns:v="https://vecta.io/nano"><path fill-rule="evenodd" d="M10 .25H4A3.75 3.75 0 0 0 .25 4v6A3.75 3.75 0 0 0 4 13.75h6A3.75 3.75 0 0 0 13.75 10V4A3.75 3.75 0 0 0 10 .25zM12.438 10c-.004 1.345-1.093 2.433-2.437 2.438H4C2.656 12.433 1.567 11.345 1.563 10V4C1.567 2.656 2.656 1.567 4 1.563h6c1.345.004 2.433 1.093 2.438 2.438v6zm-1.875-5.812a.75.75 0 1 0 0-1.5.75.75 0 1 0 0 1.5zM7 3.625C5.136 3.625 3.625 5.136 3.625 7S5.136 10.375 7 10.375 10.375 8.864 10.375 7c.002-.896-.353-1.755-.986-2.389A3.37 3.37 0 0 0 7 3.625zM4.938 7c0 1.139.923 2.063 2.063 2.063S9.063 8.139 9.063 7 8.139 4.938 7 4.938 4.938 5.861 4.938 7z" fill="#f2f2f2"/></svg>