<svg xmlns="http://www.w3.org/2000/svg" width="14" height="14" fill="none" xmlns:v="https://vecta.io/nano"><path fill-rule="evenodd" d="M1.75.25h10.5a1.5 1.5 0 0 1 1.5 1.5v10.5a1.5 1.5 0 0 1-1.5 1.5H1.75a1.5 1.5 0 0 1-1.5-1.5V1.75a1.5 1.5 0 0 1 1.5-1.5zM4 11.5c.207 0 .375-.168.375-.375v-5.25c0-.207-.168-.375-.375-.375H2.875c-.207 0-.375.168-.375.375v5.25c0 .207.168.375.375.375H4zm-.562-6.75c-.621 0-1.125-.504-1.125-1.125S2.816 2.5 3.438 2.5s1.125.504 1.125 1.125S4.059 4.75 3.438 4.75zm7.688 6.75c.207 0 .375-.168.375-.375v-3.45c.024-1.192-.857-2.209-2.04-2.355a2.25 2.25 0 0 0-2.085 1.005v-.45c0-.207-.168-.375-.375-.375H5.875c-.207 0-.375.168-.375.375v5.25c0 .207.168.375.375.375H7c.207 0 .375-.168.375-.375V8.313c0-.621.504-1.125 1.125-1.125s1.125.504 1.125 1.125v2.813c0 .207.168.375.375.375h1.125z" fill="#f2f2f2"/></svg>