<svg xmlns="http://www.w3.org/2000/svg" width="14" height="12" fill="none" xmlns:v="https://vecta.io/nano"><path d="M13.73 2.038a5.39 5.39 0 0 1-1.247 1.2v.371a8.23 8.23 0 0 1-2.444 5.867 8.22 8.22 0 0 1-5.893 2.373c-1.274.004-2.531-.287-3.673-.85-.062-.027-.101-.088-.101-.155v-.074c0-.097.078-.175.175-.175a5.97 5.97 0 0 0 3.451-1.241c-1.133-.023-2.153-.694-2.622-1.726-.024-.056-.016-.121.019-.171s.095-.077.156-.072c.344.035.692.003 1.024-.094A2.94 2.94 0 0 1 .25 4.722c-.005-.061.023-.12.072-.156s.114-.043.171-.019c.336.148.698.226 1.065.229C.461 4.056-.012 2.688.405 1.445c.043-.121.146-.21.272-.235s.255.018.341.114A8.33 8.33 0 0 0 6.686 3.94c-.055-.22-.082-.447-.081-.674a2.94 2.94 0 0 1 5.062-1.982c.561-.107 1.104-.295 1.611-.56.037-.023.084-.023.121 0 .023.037.023.084 0 .121-.245.562-.66 1.034-1.186 1.349.461-.053.913-.162 1.348-.324.037-.025.085-.025.121 0 .031.014.054.041.063.073s.003.067-.015.095z" fill="#f2f2f2"/></svg>