<svg xmlns="http://www.w3.org/2000/svg" width="83" height="81" fill="none" fill-rule="evenodd" xmlns:v="https://vecta.io/nano"><path d="M19.206 31.722l5.323 11.594c0 2.958-2.383 5.357-5.323 5.357s-5.323-2.398-5.323-5.357l5.323-11.594zm4.57 11.594l-4.227-9.207v9.207h4.227zm-4.912 0V34.11l-4.228 9.207h4.228zm9.887-16.521V8.975C16.593 14.008 8.033 26.045 8.033 40.093s8.56 26.085 20.718 31.118V28.513a21.4 21.4 0 0 0-.803-.015 21.05 21.05 0 0 0-11.979 3.721c3.435-3.105 7.882-5.1 12.782-5.423z" fill="#ccc"/><path d="M31.517 48.124c0-6.237 2.655-11.85 6.889-15.757a20.34 20.34 0 0 1 2.326 1.643 21.38 21.38 0 0 0-7.004 15.862c0 6.293 2.723 11.993 7.052 15.906a21.39 21.39 0 0 1-9.264-17.654zm3.749-27.483c0-3.442 2.773-6.232 6.194-6.232s6.194 2.79 6.194 6.232-2.773 6.232-6.194 6.232-6.194-2.791-6.194-6.232zM31.101 8.106V26.77c11.295.495 20.302 9.866 20.302 21.354 0 7.333-3.67 13.804-9.263 17.654a21.38 21.38 0 0 0 7.052-15.906c0-10.727-7.853-19.609-18.091-21.141v43.349c3.261 1.069 6.743 1.646 10.359 1.646a33.21 33.21 0 0 0 10.359-1.646V28.731a21.01 21.01 0 0 0-7.188 2.465c-.716-.62-1.471-1.195-2.261-1.72 2.815-1.592 6.027-2.556 9.45-2.707V8.106C48.558 7.037 45.076 6.46 41.46 6.46s-7.098.578-10.359 1.646z" fill="#b3b3b3"/><path d="M58.39 43.317l5.323-11.594 5.324 11.595c0 2.958-2.383 5.356-5.324 5.356s-5.323-2.398-5.323-5.356zm4.981-9.207l-4.227 9.207h4.227V34.11zm.684 0v9.207h4.228l-4.228-9.207zM54.168 8.975v17.82c4.9.323 9.347 2.317 12.782 5.422-3.41-2.347-7.536-3.721-11.98-3.721-.269 0-.536.005-.803.015v42.698c12.158-5.032 20.718-17.069 20.718-31.118s-8.56-26.085-20.718-31.118z" fill="#ccc"/><g fill="#b3b3b3"><path d="M50.433 78.593l-3.815.708L48.632 81a41.54 41.54 0 0 0 4.043-.935l-2.241-1.472zm-3.901.322l3.805-.704 1.195-2.369-3.504.82-1.496 2.252zm8.802-1.826l-3.691 1.202 2.216 1.421 3.887-1.457-2.412-1.166zm-3.826.831l3.682-1.197.878-2.505-3.368 1.273-1.192 2.429zm8.491-2.965l-3.503 1.676 2.381 1.118 3.665-1.954-2.543-.84zm-3.687 1.325l3.495-1.669.546-2.599-3.175 1.704-.867 2.564zm8.035-4.053l-3.257 2.121 2.506.796a41.84 41.84 0 0 0 3.381-2.418l-2.63-.499zm-3.483 1.798l3.249-2.113.205-2.648-2.927 2.106-.527 2.656zm7.441-5.072l-2.954 2.53 2.587.461a41.74 41.74 0 0 0 3.039-2.841l-2.672-.15zm-3.221 2.238l2.948-2.521-.14-2.653-2.629 2.471-.179 2.703zm6.721-6.003l-2.601 2.895 2.625.118 2.645-3.215-2.669.202zm-2.903 2.641l2.596-2.886-.482-2.612-2.287 2.795.173 2.704zm5.886-6.834l-2.204 3.212 2.618-.227 2.206-3.534-2.62.55zm-2.536 3l2.2-3.202-.816-2.526-1.905 3.071.521 2.657zm4.951-7.547l-1.769 3.473L78 59.352a42.13 42.13 0 0 0 1.73-3.793l-2.526.889zm-2.127 3.307l1.767-3.463-1.137-2.398-1.491 3.294.861 2.567zm3.931-8.132l-1.305 3.676 2.471-.901 1.224-3.988-2.39 1.212zm-1.68 3.557l1.303-3.666-1.437-2.228-1.052 3.462 1.186 2.432zm2.845-8.578l-.817 3.816 2.333-1.217a42.43 42.43 0 0 0 .697-4.114l-2.212 1.516zm-1.205 3.747l.817-3.805-1.714-2.021-.595 3.57 1.491 2.255zm1.709-8.878l-.316 3.89 2.156-1.512.158-4.17-1.997 1.792zm-.709 3.873l.318-3.88-1.961-1.779-.127 3.618 1.77 2.041zm.545-9.026l.19 3.899 1.941-1.782a42.19 42.19 0 0 0-.383-4.156l-1.748 2.039zm-.202 3.933l-.188-3.888-2.174-1.506.342 3.603 2.02 1.791zm-.628-9.021l.694 3.84 1.694-2.021-.918-4.07-1.469 2.251z"/><path d="M79.991 35.156a39.51 39.51 0 0 0-.69-3.831l-2.351-1.208.806 3.528 2.234 1.511zM78.2 26.295l1.185 3.717 1.418-2.226a42.15 42.15 0 0 0-1.438-3.915L78.2 26.295z"/><path d="M79.015 30.147a39.41 39.41 0 0 0-1.18-3.708l-2.487-.89 1.256 3.392 2.411 1.205zm-2.924-8.551l1.656 3.529 1.117-2.393-1.933-3.693-.841 2.557zm1.307 3.712l-1.65-3.521-2.581-.556 1.685 3.198 2.547.879zm-4.006-8.094l2.099 3.282.798-2.519-2.394-3.408-.503 2.645zm1.777 3.509l-2.092-3.275-2.631-.213 2.085 2.95 2.639.537zm-5.021-7.501l2.506 2.979.465-2.603a41.94 41.94 0 0 0-2.815-3.065l-.156 2.688zm2.216 3.246l-2.498-2.973-2.637.134 2.449 2.652 2.686.187zM66.415 9.69l2.871 2.625.124-2.641-3.188-2.67.193 2.686zm2.618 2.928l-2.862-2.62-2.597.479 2.771 2.308 2.687-.167zm-6.776-5.94l3.186 2.226-.219-2.635a41.66 41.66 0 0 0-3.507-2.229l.54 2.638zm2.974 2.56a38.96 38.96 0 0 0-3.177-2.222l-2.513.815 3.047 1.925 2.643-.518zm-7.487-5.001l3.447 1.789-.559-2.584-3.765-1.75.877 2.545zm3.28 2.148l-3.437-1.787-2.386 1.138 3.27 1.509 2.553-.86zm-8.071-3.977l3.65 1.322-.889-2.488A41.5 41.5 0 0 0 51.754 0l1.199 2.408z"/><path d="M56.483 4.108a38.73 38.73 0 0 0-3.64-1.321l-2.218 1.441 3.438 1.068 2.42-1.187zm-9.415-2.912l2.646-.832 2.031 1.898-2.646.833-2.031-1.898zM32.486 78.593a39.12 39.12 0 0 0 3.815.708L34.288 81l-4.042-.935 2.241-1.472z"/><path d="M36.388 78.915l-3.805-.704-1.195-2.369 3.504.82 1.496 2.252zm-8.803-1.826l3.691 1.202-2.217 1.421c-1.305-.416-2.602-.901-3.887-1.457l2.413-1.166zm3.827.831l-3.682-1.197-.878-2.505 3.368 1.273 1.192 2.429zm-8.491-2.965l3.503 1.676-2.381 1.118-3.665-1.954 2.543-.84zm3.686 1.325l-3.495-1.669-.546-2.599 3.174 1.704.867 2.564zm-8.034-4.053a39.3 39.3 0 0 0 3.256 2.121l-2.506.796c-1.154-.741-2.283-1.547-3.381-2.418l2.63-.499zm3.483 1.798a39 39 0 0 1-3.249-2.113l-.205-2.648 2.927 2.106.528 2.656zm-7.442-5.072l2.954 2.53-2.588.461-3.039-2.841 2.672-.15zm3.221 2.238l-2.948-2.521.14-2.653 2.629 2.471.179 2.703zm-6.721-6.003l2.601 2.895-2.625.118a41.95 41.95 0 0 1-2.645-3.215l2.669.202zm2.903 2.641c-.904-.91-1.771-1.872-2.596-2.886l.482-2.612 2.287 2.795-.173 2.704zm-5.886-6.834l2.204 3.212-2.618-.227-2.206-3.534 2.62.55zm2.537 3l-2.2-3.202.816-2.526 1.905 3.071-.521 2.657zm-4.951-7.547l1.769 3.473-2.566-.569-1.73-3.793 2.527.889zm2.126 3.307l-1.767-3.463 1.137-2.398 1.491 3.294-.861 2.567zm-3.931-8.132l1.305 3.676-2.471-.901-1.224-3.988 2.39 1.212z"/><path d="M5.592 55.18a39.37 39.37 0 0 1-1.303-3.666l1.437-2.228 1.052 3.462-1.186 2.432zm-2.844-8.578l.817 3.816-2.333-1.217-.697-4.114 2.213 1.516z"/><path d="M3.952 50.349a39.29 39.29 0 0 1-.817-3.805l1.714-2.021.595 3.57-1.491 2.255zm-1.709-8.878l.316 3.89-2.156-1.512-.158-4.17 1.997 1.792z"/><path d="M2.952 45.344l-.318-3.88 1.961-1.779.127 3.618-1.77 2.041zm-.545-9.026l-.19 3.899-1.941-1.782.383-4.156 1.748 2.039zm.202 3.933l.187-3.888 2.175-1.506-.342 3.603-2.02 1.791zm.629-9.021l-.693 3.84L.85 33.049a42.13 42.13 0 0 1 .918-4.07l1.469 2.251zm-.31 3.926l.69-3.831 2.351-1.208-.806 3.528-2.234 1.511zm1.792-8.861l-1.185 3.717-1.418-2.226 1.438-3.915 1.165 2.424zm-.815 3.852l1.18-3.708 2.487-.89-1.256 3.392-2.411 1.205zm2.924-8.551a39.68 39.68 0 0 0-1.656 3.529l-1.117-2.393 1.933-3.693.841 2.557z"/><path d="M5.521 25.308l1.65-3.521 2.582-.556-1.685 3.198-2.547.879zm4.007-8.094l-2.099 3.282-.798-2.519a41.75 41.75 0 0 1 2.394-3.408l.503 2.645zm-1.777 3.509a39.3 39.3 0 0 1 2.092-3.275l2.631-.213-2.085 2.95-2.639.537zm5.021-7.501l-2.506 2.979-.465-2.603a41.91 41.91 0 0 1 2.815-3.065l.156 2.688zm-2.217 3.246l2.498-2.973 2.637.134-2.449 2.652-2.686.187zm5.949-6.778l-2.871 2.625-.124-2.641a42 42 0 0 1 3.188-2.67l-.193 2.686zm-2.617 2.928a39.08 39.08 0 0 1 2.862-2.62l2.597.479-2.772 2.308-2.687-.167zm6.776-5.94l-3.186 2.226.219-2.635a41.71 41.71 0 0 1 3.506-2.229l-.54 2.638zm-2.975 2.56a38.98 38.98 0 0 1 3.177-2.222l2.513.815-3.047 1.925-2.643-.518zm7.488-5.001l-3.447 1.789.559-2.584 3.765-1.75-.877 2.545zm-3.281 2.148c1.105-.646 2.252-1.244 3.437-1.787l2.386 1.138-3.27 1.509-2.553-.86zm8.072-3.977l-3.65 1.322.889-2.488L31.166 0l-1.199 2.408z"/><path d="M26.436 4.108a38.74 38.74 0 0 1 3.64-1.321l2.218 1.441-3.438 1.068-2.42-1.187zm9.416-2.912L33.206.364l-2.031 1.898 2.646.833 2.031-1.898z"/></g></svg>