<svg xmlns="http://www.w3.org/2000/svg" width="83" height="81" fill="none" fill-rule="evenodd" xmlns:v="https://vecta.io/nano"><path d="M25.439 61.441v1.722h31.609v-1.722H25.439zm1.726-3.444v1.722h11.489V22.846l-1.726.994v34.157h-9.763zm28.156 1.722v-1.722h-9.763V23.84l-1.726-.994v36.873h11.489zm-33.43-25.525l4.251 7.346h-8.502l4.251-7.346zm31.462 9.069h14.482L61.458 32.24v-3.219L41.243 17.377 21.029 29.021v3.219l-6.378 11.022h14.482L22.755 32.24v-2.225l18.489-10.65 18.488 10.65v2.225l-6.378 11.022zm7.241-9.069l-4.251 7.346h8.502l-4.251-7.346zM41.243 15.388l-21.94 12.639v3.752l-1.726 2.983v-7.729L41.243 13.4 64.91 27.033v7.729l-1.726-2.983v-3.752L41.243 15.388zM28.926 44.984c-.789 3.218-3.69 5.502-7.034 5.502a7.24 7.24 0 0 1-7.033-5.502h14.067zm-2.733 1.722h-8.602a5.51 5.51 0 0 0 8.602 0zm41.436-1.722c-.789 3.218-3.69 5.502-7.034 5.502a7.24 7.24 0 0 1-7.034-5.502h14.067zm-2.733 1.722h-8.602a5.51 5.51 0 0 0 8.602 0zM40.38 21.852v37.867h1.726V21.852l-.863-.497-.863.497z" fill="#b3b3b3"/><g fill="#c5c5c5"><path d="M32.305 78.123l3.8.699L34.1 80.5a41.79 41.79 0 0 1-4.026-.923l2.232-1.454zm3.886.317l-3.79-.695-1.19-2.339 3.49.81 1.49 2.224zm-8.767-1.803l3.676 1.187-2.208 1.403-3.871-1.439 2.403-1.151zm3.811.82l-3.667-1.182-.874-2.474 3.355 1.257 1.187 2.399zm-8.457-2.928l3.489 1.655-2.372 1.104a41.59 41.59 0 0 1-3.65-1.93l2.533-.829zm3.672 1.309a38.79 38.79 0 0 1-3.482-1.649l-.544-2.567 3.162 1.683.864 2.533zm-8.003-4.003c1.056.758 2.139 1.456 3.244 2.095l-2.496.787-3.367-2.388 2.619-.493zm3.469 1.775a38.65 38.65 0 0 1-3.236-2.087l-.204-2.616 2.915 2.079.525 2.624zm-7.411-5.008l2.942 2.498-2.577.455-3.027-2.806 2.662-.148zm3.208 2.21l-2.936-2.49.14-2.62 2.619 2.441.178 2.669zm-6.695-5.929l2.591 2.86-2.615.116a41.37 41.37 0 0 1-2.634-3.175l2.658.199zm2.892 2.609l-2.586-2.851.481-2.579 2.277 2.76-.172 2.67zm-5.863-6.75l2.195 3.172-2.608-.225-2.197-3.491 2.61.543zm2.527 2.963l-2.192-3.163.813-2.495 1.897 3.033-.519 2.625zm-4.931-7.454l1.762 3.431-2.556-.562a41.56 41.56 0 0 1-1.723-3.746l2.516.878zm2.117 3.266A38.75 38.75 0 0 1 6 56.096l1.132-2.368 1.485 3.254-.858 2.535zm-3.915-8.032l1.299 3.63-2.461-.889a41.24 41.24 0 0 1-1.219-3.939l2.38 1.198z"/><path d="M5.518 54.998a38.73 38.73 0 0 1-1.298-3.62l1.432-2.2L6.7 52.597l-1.181 2.401zm-2.833-8.472l.814 3.768-2.324-1.202a41.31 41.31 0 0 1-.694-4.063l2.204 1.497z"/><path d="M3.885 50.227c-.33-1.227-.603-2.481-.814-3.758l1.707-1.995L5.37 48l-1.485 2.227zm-1.702-8.768l.315 3.842L.35 43.807c-.12-1.356-.173-2.729-.157-4.119l1.989 1.771z"/><path d="M2.889 45.284a38.69 38.69 0 0 1-.316-3.832l1.953-1.757.126 3.573-1.763 2.016zm-.543-8.915l-.19 3.85-1.933-1.76c.058-1.36.185-2.729.382-4.105l1.741 2.014z"/><path d="M2.547 40.254c-.002-1.271.06-2.552.187-3.841L4.9 34.926l-.341 3.559-2.011 1.77zm.626-8.91l-.691 3.793-1.687-1.996a41.34 41.34 0 0 1 .915-4.02l1.463 2.224z"/><path d="M2.865 35.222c.164-1.26.393-2.522.687-3.784l2.342-1.194-.803 3.484-2.225 1.493zm1.784-8.752l-1.18 3.671-1.412-2.199c.408-1.298.885-2.588 1.432-3.867l1.16 2.395z"/><path d="M3.837 30.274c.328-1.228.719-2.45 1.175-3.662l2.477-.879-1.251 3.35-2.401 1.191zm2.913-8.445L5.1 25.315l-1.113-2.364a41.43 41.43 0 0 1 1.925-3.647l.838 2.525zm-1.302 3.667c.485-1.175 1.032-2.335 1.643-3.478l2.571-.549-1.678 3.159-2.536.868zm3.99-7.995l-2.091 3.242-.794-2.488a41.48 41.48 0 0 1 2.385-3.366l.501 2.612zm-1.77 3.466l2.083-3.234 2.621-.21-2.076 2.914-2.628.531zm5.001-7.408l-2.496 2.942-.463-2.57a41.24 41.24 0 0 1 2.804-3.027l.155 2.655zm-2.208 3.206a38.7 38.7 0 0 1 2.488-2.936l2.626.132-2.439 2.619-2.675.185zm5.926-6.695l-2.859 2.593-.123-2.608a41.41 41.41 0 0 1 3.175-2.637l-.193 2.653zm-2.607 2.892c.898-.901 1.849-1.764 2.85-2.587l2.586.473-2.76 2.28-2.676-.165zm6.749-5.867l-3.174 2.199.218-2.602 3.492-2.201-.537 2.605zm-2.963 2.529l3.164-2.195 2.503.805-3.035 1.901-2.632-.511zm7.458-4.94l-3.433 1.767.556-2.552 3.751-1.728-.874 2.513zm-3.267 2.122l3.424-1.765 2.376 1.123L24.3 7.655l-2.543-.849zm8.039-3.928l-3.635 1.306.885-2.458L30.99.5l-1.194 2.378z"/><path d="M26.279 4.557a38.89 38.89 0 0 1 3.625-1.305l2.209 1.423-3.424 1.054-2.41-1.172zm9.378-2.876L33.022.859l-2.023 1.875 2.635.822 2.023-1.875zm14.524 76.442l-3.799.699 2.005 1.678 4.026-.923-2.232-1.454zm-3.886.317l3.79-.695 1.19-2.339-3.49.81-1.49 2.224zm8.768-1.803l-3.676 1.187 2.207 1.403 3.871-1.439-2.403-1.151zm-3.812.82l3.667-1.182.874-2.474-3.354 1.257-1.187 2.399zm8.457-2.928l-3.489 1.655 2.372 1.104 3.65-1.93-2.533-.829zm-3.671 1.309l3.481-1.649.544-2.567-3.162 1.683-.863 2.533zm8.002-4.003l-3.244 2.095 2.496.787a41.64 41.64 0 0 0 3.367-2.388l-2.62-.493zM60.57 73.61l3.236-2.087.204-2.616-2.915 2.079-.525 2.624zm7.411-5.008c-.948.889-1.93 1.722-2.942 2.498l2.577.455a41.49 41.49 0 0 0 3.027-2.806l-2.662-.148zm-3.207 2.21l2.936-2.49-.14-2.62-2.619 2.441-.178 2.669zm6.694-5.929l-2.591 2.86 2.615.116c.921-1.004 1.801-2.062 2.634-3.175l-2.658.199zm-2.892 2.609l2.586-2.851-.48-2.579-2.277 2.76.172 2.67zm5.863-6.75l-2.196 3.172 2.608-.225 2.197-3.491-2.609.543zm-2.526 2.963l2.192-3.163-.813-2.495-1.897 3.033.519 2.625zm4.93-7.454l-1.762 3.431 2.556-.562 1.723-3.746-2.516.878zm-2.117 3.266a38.65 38.65 0 0 0 1.76-3.421l-1.132-2.368-1.485 3.254.857 2.535zm3.915-8.032a39.03 39.03 0 0 1-1.299 3.63l2.461-.889 1.219-3.939-2.38 1.198z"/><path d="M76.968 54.998a38.73 38.73 0 0 0 1.298-3.62l-1.432-2.2-1.048 3.419 1.182 2.401zm2.833-8.472a39 39 0 0 1-.814 3.768l2.324-1.202.694-4.063-2.204 1.497z"/><path d="M78.601 50.227l.814-3.758-1.707-1.995L77.116 48l1.485 2.227zm1.703-8.768c-.042 1.297-.148 2.579-.315 3.842l2.147-1.494.157-4.119-1.989 1.771z"/><path d="M79.597 45.284l.316-3.832-1.953-1.757-.126 3.573 1.763 2.016zm.543-8.915a39.13 39.13 0 0 1 .19 3.85l1.934-1.76-.382-4.105-1.741 2.014z"/><path d="M79.939 40.254l-.187-3.841-2.166-1.488.341 3.559 2.011 1.77zm-.626-8.91l.691 3.793 1.687-1.996a41.34 41.34 0 0 0-.915-4.02l-1.463 2.224zm.308 3.878l-.687-3.784-2.342-1.194.803 3.484 2.225 1.493zm-1.784-8.752a38.83 38.83 0 0 1 1.18 3.671l1.412-2.199-1.432-3.867-1.16 2.395z"/><path d="M78.649 30.274l-1.175-3.662-2.477-.879 1.251 3.35 2.401 1.191zm-2.912-8.445c.613 1.145 1.162 2.309 1.649 3.486l1.113-2.364-1.925-3.647-.838 2.525z"/><path d="M77.039 25.496a38.68 38.68 0 0 0-1.643-3.478l-2.571-.549 1.678 3.159 2.537.868zm-3.991-7.995l2.091 3.242.795-2.488-2.385-3.366-.501 2.612zm1.77 3.466l-2.084-3.234-2.621-.21 2.076 2.914 2.628.531zm-5.001-7.408l2.496 2.942.463-2.57a41.46 41.46 0 0 0-2.804-3.027l-.155 2.655zm2.207 3.206l-2.488-2.936-2.626.132 2.439 2.619 2.675.185zm-5.925-6.695l2.859 2.593.123-2.608-3.175-2.637.192 2.653zm2.607 2.892l-2.85-2.587-2.586.473 2.76 2.28 2.676-.165zm-6.749-5.867l3.174 2.199-.218-2.602c-1.115-.783-2.28-1.518-3.492-2.201l.537 2.605zm2.963 2.529l-3.164-2.195-2.503.805 3.035 1.901 2.632-.511zm-7.458-4.94l3.434 1.767-.556-2.552-3.75-1.728.873 2.513zm3.268 2.122l-3.424-1.765-2.376 1.123 3.257 1.491 2.543-.849zm-8.04-3.928l3.635 1.306-.885-2.458L51.496.5l1.194 2.378zm3.517 1.679l-3.625-1.305-2.209 1.423 3.424 1.054 2.41-1.172zm-9.378-2.876l2.635-.822 2.023 1.875-2.635.822-2.023-1.875z"/></g></svg>